<?xml version="1.0" encoding="UTF-8" standalone="no"?>
<svg xmlns="http://www.w3.org/2000/svg" width="45" height="45" viewBox="0 0 45 45">
<path d="M 22.5 11.63 V 6 M 20 8 h 5 M 22.5 25 s 4.5 -7.5 3 -10.5 c 0 0 -1 -2.5 -3 -2.5 s -3 2.5 -3 2.5 c -1.5 3 3 10.5 3 10.5 M 12.5 37 c 5.5 3.5 14.5 3.5 20 0 v -7 s 9 -4.5 6 -10.5 c -4 -6.5 -13.5 -3.5 -16 4 V 27 v -3.5 c -2.5 -7.5 -12 -10.5 -16 -4 -3 6 6 10.5 6 10.5 v 7 M 12.5 30 c 5.5 -3 14.5 -3 20 0 m -20 3.5 c 5.5 -3 14.5 -3 20 0 m -20 3.5 c 5.5 -3 14.5 -3 20 0" style="fill:#ffffff;stroke:#000000;stroke-width:1.5;stroke-linejoin:round;stroke-linecap:round;" /></svg>